<?xml version="1.0" encoding="UTF-8" standalone="no"?>
<svg
   xmlns:dc="http://purl.org/dc/elements/1.1/"
   xmlns:cc="http://creativecommons.org/ns#"
   xmlns:rdf="http://www.w3.org/1999/02/22-rdf-syntax-ns#"
   xmlns:svg="http://www.w3.org/2000/svg"
   xmlns="http://www.w3.org/2000/svg"
   xmlns:sodipodi="http://sodipodi.sourceforge.net/DTD/sodipodi-0.dtd"
   xmlns:inkscape="http://www.inkscape.org/namespaces/inkscape"
   width="20"
   height="20"
   viewBox="0 0 20 20"
   fill="none"
   version="1.1"
   id="svg4"
   sodipodi:docname="calendar.svg"
   inkscape:version="1.0.2-2 (e86c870879, 2021-01-15)">
  <metadata
     id="metadata10">
    <rdf:RDF>
      <cc:Work
         rdf:about="">
        <dc:format>image/svg+xml</dc:format>
        <dc:type
           rdf:resource="http://purl.org/dc/dcmitype/StillImage" />
      </cc:Work>
    </rdf:RDF>
  </metadata>
  <defs
     id="defs8" />
  <sodipodi:namedview
     pagecolor="#ffffff"
     bordercolor="#666666"
     borderopacity="1"
     objecttolerance="10"
     gridtolerance="10"
     guidetolerance="10"
     inkscape:pageopacity="0"
     inkscape:pageshadow="2"
     inkscape:window-width="1366"
     inkscape:window-height="705"
     id="namedview6"
     showgrid="false"
     inkscape:zoom="26.9"
     inkscape:cx="2.8438662"
     inkscape:cy="10"
     inkscape:window-x="-8"
     inkscape:window-y="-8"
     inkscape:window-maximized="1"
     inkscape:current-layer="svg4" />
  <g
     id="24 / time / calendar-dates"
     style="fill:#00a253;fill-opacity:1">
    <path
       id="icon"
       fill-rule="evenodd"
       clip-rule="evenodd"
       d="M6.66801 5.00033H5.00134V4.16699H3.33459V6.66699H16.6679V4.16699H15.0013V5.00033H13.3346V4.16699H6.66801V5.00033ZM16.6679 8.33366H3.33459V16.667H16.6679V8.33366ZM13.3346 2.50037H6.66801V1.66699H5.00134V2.50037H3.33464C2.41416 2.50037 1.66797 3.24656 1.66797 4.16703V16.667C1.66797 17.5875 2.41416 18.3337 3.33464 18.3337H16.668C17.5884 18.3337 18.3346 17.5875 18.3346 16.667V4.16703C18.3346 3.24656 17.5884 2.50037 16.668 2.50037H15.0013V1.66699H13.3346V2.50037ZM7.50126 11.667H5.83459V10.0004H7.50126V11.667ZM9.16797 11.667H10.8346V10.0004H9.16797V11.667ZM14.168 11.667H12.5013V10.0004H14.168V11.667ZM5.83459 15.0003H7.50126V13.3336H5.83459V15.0003ZM10.8346 15.0003H9.16797V13.3336H10.8346V15.0003Z"
       fill="#565656"
       style="fill:#00a253;fill-opacity:1" />
  </g>
</svg>
