<?xml version="1.0" encoding="UTF-8" standalone="no"?>
<svg
   xmlns:dc="http://purl.org/dc/elements/1.1/"
   xmlns:cc="http://creativecommons.org/ns#"
   xmlns:rdf="http://www.w3.org/1999/02/22-rdf-syntax-ns#"
   xmlns:svg="http://www.w3.org/2000/svg"
   xmlns="http://www.w3.org/2000/svg"
   xmlns:sodipodi="http://sodipodi.sourceforge.net/DTD/sodipodi-0.dtd"
   xmlns:inkscape="http://www.inkscape.org/namespaces/inkscape"
   width="35"
   height="25"
   viewBox="0 0 35 25"
   fill="none"
   version="1.1"
   id="svg960"
   sodipodi:docname="Line 6.svg"
   inkscape:version="1.0.1 (3bc2e813f5, 2020-09-07)">
  <metadata
     id="metadata966">
    <rdf:RDF>
      <cc:Work
         rdf:about="">
        <dc:format>image/svg+xml</dc:format>
        <dc:type
           rdf:resource="http://purl.org/dc/dcmitype/StillImage" />
      </cc:Work>
    </rdf:RDF>
  </metadata>
  <defs
     id="defs964" />
  <sodipodi:namedview
     pagecolor="#ffffff"
     bordercolor="#666666"
     borderopacity="1"
     objecttolerance="10"
     gridtolerance="10"
     guidetolerance="10"
     inkscape:pageopacity="0"
     inkscape:pageshadow="2"
     inkscape:window-width="1920"
     inkscape:window-height="1001"
     id="namedview962"
     showgrid="false"
     inkscape:zoom="33.56"
     inkscape:cx="17.5"
     inkscape:cy="12.5"
     inkscape:window-x="0"
     inkscape:window-y="27"
     inkscape:window-maximized="1"
     inkscape:current-layer="svg960" />
  <line
     x1="1.0000051"
     y1="24"
     x2="33.999996"
     y2="1.0000001"
     stroke="#dadada"
     stroke-width="2"
     id="line958" />
  <g
     style="fill:none"
     id="g1540"
     transform="translate(5.5,0.5)">
    <path
       fill-rule="evenodd"
       clip-rule="evenodd"
       d="M 7,7 V 4 C 7,2.89543 7.89543,2 9,2 h 6 c 1.1046,0 2,0.89543 2,2 v 3 4 h 5 L 12,19.5847 2,11 h 5 z m 8,-3 v 3 4 2 h 1.2967 L 12,16.9505 7.70326,13 H 9 V 11 7 4 Z m 4,18 c 1.1046,0 2,-0.8954 2,-2 H 3 c 0,1.1046 0.89543,2 2,2 z"
       fill="#dadada"
       id="path1529" />
  </g>
</svg>
