<svg width="31" height="31" viewBox="0 0 31 31" fill="none" xmlns="http://www.w3.org/2000/svg">
<path d="M29.223 14.8869L16.1053 1.76914C15.573 1.24414 14.8438 0.916016 14.0417 0.916016H3.83342C2.22196 0.916016 0.916748 2.22122 0.916748 3.83268V14.041C0.916748 14.8504 1.24487 15.5796 1.77716 16.1046L14.9022 29.2296C15.4272 29.7546 16.1563 30.0827 16.9584 30.0827C17.7605 30.0827 18.497 29.7546 19.022 29.2296L29.2303 19.0212C29.7553 18.4889 30.0834 17.7598 30.0834 16.9577C30.0834 16.1483 29.7553 15.4191 29.223 14.8869ZM6.02092 8.20768C4.8105 8.20768 3.83342 7.2306 3.83342 6.02018C3.83342 4.80977 4.8105 3.83268 6.02092 3.83268C7.23133 3.83268 8.20842 4.80977 8.20842 6.02018C8.20842 7.2306 7.23133 8.20768 6.02092 8.20768Z" fill="#00A253"/>
</svg>
