<svg width="20" height="20" viewBox="0 0 20 20" fill="none" xmlns="http://www.w3.org/2000/svg">
<path fill-rule="evenodd" clip-rule="evenodd" d="M7.49935 0.833008H12.4993C13.4198 0.833008 14.166 1.5792 14.166 2.49967V3.33301H16.666C17.5865 3.33301 18.3327 4.0792 18.3327 4.99967V6.66634C18.3327 7.58682 17.5865 8.33301 16.666 8.33301H16.5992L15.8327 17.4997C15.8327 18.4201 15.0865 19.1663 14.166 19.1663H5.83268C4.91221 19.1663 4.16601 18.4201 4.16889 17.5689L3.39924 8.33301H3.33268C2.41221 8.33301 1.66602 7.58682 1.66602 6.66634V4.99967C1.66602 4.0792 2.41221 3.33301 3.33268 3.33301H5.83268V2.49967C5.83268 1.5792 6.57887 0.833008 7.49935 0.833008ZM3.33268 4.99967H5.83268H14.166H16.666V6.66634H3.33268V4.99967ZM5.07142 8.33301H14.927L14.1689 17.4305L14.166 17.4997H5.83268L5.07142 8.33301ZM12.4993 2.49967V3.33301H7.49935V2.49967H12.4993Z" fill="#565656"/>
</svg>
