<svg width="40" height="40" viewBox="0 0 40 40" fill="none" xmlns="http://www.w3.org/2000/svg">
<path d="M38.8259 18.5656L22.3779 2.11757C21.7105 1.45928 20.7962 1.04785 19.7905 1.04785H6.99047C4.9699 1.04785 3.33333 2.68442 3.33333 4.70499V17.505C3.33333 18.5198 3.74476 19.4341 4.41219 20.0924L20.8693 36.5496C21.5276 37.2079 22.4419 37.6193 23.4476 37.6193C24.4533 37.6193 25.3768 37.2079 26.035 36.5496L38.835 23.7496C39.4933 23.0821 39.9048 22.1679 39.9048 21.1621C39.9048 20.1473 39.4933 19.233 38.8259 18.5656ZM9.73333 10.1907C8.21561 10.1907 6.99047 8.96557 6.99047 7.44785C6.99047 5.93014 8.21561 4.70499 9.73333 4.70499C11.251 4.70499 12.4762 5.93014 12.4762 7.44785C12.4762 8.96557 11.251 10.1907 9.73333 10.1907Z" fill="#FF6161"/>
</svg>
